<?xml version="1.0" encoding="utf-8" standalone="no"?>
<!DOCTYPE svg PUBLIC "-//W3C//DTD SVG 1.1//EN"
  "http://www.w3.org/Graphics/SVG/1.1/DTD/svg11.dtd">
<svg xmlns:xlink="http://www.w3.org/1999/xlink" width="864pt" height="288pt" viewBox="0 0 864 288" xmlns="http://www.w3.org/2000/svg" version="1.1">
 <metadata>
  <rdf:RDF xmlns:dc="http://purl.org/dc/elements/1.1/" xmlns:cc="http://creativecommons.org/ns#" xmlns:rdf="http://www.w3.org/1999/02/22-rdf-syntax-ns#">
   <cc:Work>
    <dc:type rdf:resource="http://purl.org/dc/dcmitype/StillImage"/>
    <dc:date>2024-01-12T13:42:02.909295</dc:date>
    <dc:format>image/svg+xml</dc:format>
    <dc:creator>
     <cc:Agent>
      <dc:title>Matplotlib v3.8.2, https://matplotlib.org/</dc:title>
     </cc:Agent>
    </dc:creator>
   </cc:Work>
  </rdf:RDF>
 </metadata>
 <defs>
  <style type="text/css">*{stroke-linejoin: round; stroke-linecap: butt}</style>
 </defs>
 <g id="figure_1">
  <g id="patch_1">
   <path d="M 0 288 
L 864 288 
L 864 0 
L 0 0 
z
" style="fill: #ffffff"/>
  </g>
  <g id="axes_1">
   <g id="patch_2">
    <path d="M 108 256.32 
L 777.6 256.32 
L 777.6 34.56 
L 108 34.56 
z
" style="fill: #ffffff"/>
   </g>
   <g id="matplotlib.axis_1">
    <g id="xtick_1">
     <g id="line2d_1">
      <defs>
       <path id="mb53d5a6a3a" d="M 0 0 
L 0 3.5 
" style="stroke: #000000; stroke-width: 0.8"/>
      </defs>
      <g>
       <use xlink:href="#mb53d5a6a3a" x="108" y="256.32" style="stroke: #000000; stroke-width: 0.8"/>
      </g>
     </g>
     <g id="text_1">
      <!-- 1 -->
      <g transform="translate(105.219531 270.493438) scale(0.1 -0.1)">
       <defs>
        <path id="Helvetica-31" d="M 613 3169 
L 613 3600 
Q 1222 3659 1462 3798 
Q 1703 3938 1822 4456 
L 2266 4456 
L 2266 0 
L 1666 0 
L 1666 3169 
L 613 3169 
z
" transform="scale(0.015625)"/>
       </defs>
       <use xlink:href="#Helvetica-31"/>
      </g>
     </g>
    </g>
    <g id="xtick_2">
     <g id="line2d_2">
      <g>
       <use xlink:href="#mb53d5a6a3a" x="134.677291" y="256.32" style="stroke: #000000; stroke-width: 0.8"/>
      </g>
     </g>
     <g id="text_2">
      <!-- 2 -->
      <g transform="translate(131.896822 270.493438) scale(0.1 -0.1)">
       <defs>
        <path id="Helvetica-32" d="M 200 0 
Q 231 578 439 1006 
Q 647 1434 1250 1784 
L 1850 2131 
Q 2253 2366 2416 2531 
Q 2672 2791 2672 3125 
Q 2672 3516 2437 3745 
Q 2203 3975 1813 3975 
Q 1234 3975 1013 3538 
Q 894 3303 881 2888 
L 309 2888 
Q 319 3472 525 3841 
Q 891 4491 1816 4491 
Q 2584 4491 2939 4075 
Q 3294 3659 3294 3150 
Q 3294 2613 2916 2231 
Q 2697 2009 2131 1694 
L 1703 1456 
Q 1397 1288 1222 1134 
Q 909 863 828 531 
L 3272 531 
L 3272 0 
L 200 0 
z
" transform="scale(0.015625)"/>
       </defs>
       <use xlink:href="#Helvetica-32"/>
      </g>
     </g>
    </g>
    <g id="xtick_3">
     <g id="line2d_3">
      <g>
       <use xlink:href="#mb53d5a6a3a" x="161.354582" y="256.32" style="stroke: #000000; stroke-width: 0.8"/>
      </g>
     </g>
     <g id="text_3">
      <!-- 3 -->
      <g transform="translate(158.574113 270.493438) scale(0.1 -0.1)">
       <defs>
        <path id="Helvetica-33" d="M 1663 -122 
Q 869 -122 511 314 
Q 153 750 153 1375 
L 741 1375 
Q 778 941 903 744 
Q 1122 391 1694 391 
Q 2138 391 2406 628 
Q 2675 866 2675 1241 
Q 2675 1703 2392 1887 
Q 2109 2072 1606 2072 
Q 1550 2072 1492 2070 
Q 1434 2069 1375 2066 
L 1375 2563 
Q 1463 2553 1522 2550 
Q 1581 2547 1650 2547 
Q 1966 2547 2169 2647 
Q 2525 2822 2525 3272 
Q 2525 3606 2287 3787 
Q 2050 3969 1734 3969 
Q 1172 3969 956 3594 
Q 838 3388 822 3006 
L 266 3006 
Q 266 3506 466 3856 
Q 809 4481 1675 4481 
Q 2359 4481 2734 4176 
Q 3109 3872 3109 3294 
Q 3109 2881 2888 2625 
Q 2750 2466 2531 2375 
Q 2884 2278 3082 2001 
Q 3281 1725 3281 1325 
Q 3281 684 2859 281 
Q 2438 -122 1663 -122 
z
" transform="scale(0.015625)"/>
       </defs>
       <use xlink:href="#Helvetica-33"/>
      </g>
     </g>
    </g>
    <g id="xtick_4">
     <g id="line2d_4">
      <g>
       <use xlink:href="#mb53d5a6a3a" x="188.031873" y="256.32" style="stroke: #000000; stroke-width: 0.8"/>
      </g>
     </g>
     <g id="text_4">
      <!-- 4 -->
      <g transform="translate(185.251404 270.493438) scale(0.1 -0.1)">
       <defs>
        <path id="Helvetica-34" d="M 2116 1584 
L 2116 3613 
L 681 1584 
L 2116 1584 
z
M 2125 0 
L 2125 1094 
L 163 1094 
L 163 1644 
L 2213 4488 
L 2688 4488 
L 2688 1584 
L 3347 1584 
L 3347 1094 
L 2688 1094 
L 2688 0 
L 2125 0 
z
" transform="scale(0.015625)"/>
       </defs>
       <use xlink:href="#Helvetica-34"/>
      </g>
     </g>
    </g>
    <g id="xtick_5">
     <g id="line2d_5">
      <g>
       <use xlink:href="#mb53d5a6a3a" x="214.709163" y="256.32" style="stroke: #000000; stroke-width: 0.8"/>
      </g>
     </g>
     <g id="text_5">
      <!-- 5 -->
      <g transform="translate(211.928695 270.493438) scale(0.1 -0.1)">
       <defs>
        <path id="Helvetica-35" d="M 791 1141 
Q 847 659 1238 475 
Q 1438 381 1700 381 
Q 2200 381 2440 700 
Q 2681 1019 2681 1406 
Q 2681 1875 2395 2131 
Q 2109 2388 1709 2388 
Q 1419 2388 1211 2275 
Q 1003 2163 856 1963 
L 369 1991 
L 709 4400 
L 3034 4400 
L 3034 3856 
L 1131 3856 
L 941 2613 
Q 1097 2731 1238 2791 
Q 1488 2894 1816 2894 
Q 2431 2894 2859 2497 
Q 3288 2100 3288 1491 
Q 3288 856 2895 371 
Q 2503 -113 1644 -113 
Q 1097 -113 676 195 
Q 256 503 206 1141 
L 791 1141 
z
" transform="scale(0.015625)"/>
       </defs>
       <use xlink:href="#Helvetica-35"/>
      </g>
     </g>
    </g>
    <g id="xtick_6">
     <g id="line2d_6">
      <g>
       <use xlink:href="#mb53d5a6a3a" x="241.386454" y="256.32" style="stroke: #000000; stroke-width: 0.8"/>
      </g>
     </g>
     <g id="text_6">
      <!-- 6 -->
      <g transform="translate(238.605985 270.493438) scale(0.1 -0.1)">
       <defs>
        <path id="Helvetica-36" d="M 1872 4494 
Q 2622 4494 2917 4105 
Q 3213 3716 3213 3303 
L 2656 3303 
Q 2606 3569 2497 3719 
Q 2294 4000 1881 4000 
Q 1409 4000 1131 3564 
Q 853 3128 822 2316 
Q 1016 2600 1309 2741 
Q 1578 2866 1909 2866 
Q 2472 2866 2890 2506 
Q 3309 2147 3309 1434 
Q 3309 825 2912 354 
Q 2516 -116 1781 -116 
Q 1153 -116 697 361 
Q 241 838 241 1966 
Q 241 2800 444 3381 
Q 834 4494 1872 4494 
z
M 1831 384 
Q 2275 384 2495 682 
Q 2716 981 2716 1388 
Q 2716 1731 2519 2042 
Q 2322 2353 1803 2353 
Q 1441 2353 1167 2112 
Q 894 1872 894 1388 
Q 894 963 1142 673 
Q 1391 384 1831 384 
z
" transform="scale(0.015625)"/>
       </defs>
       <use xlink:href="#Helvetica-36"/>
      </g>
     </g>
    </g>
    <g id="xtick_7">
     <g id="line2d_7">
      <g>
       <use xlink:href="#mb53d5a6a3a" x="268.063745" y="256.32" style="stroke: #000000; stroke-width: 0.8"/>
      </g>
     </g>
     <g id="text_7">
      <!-- 7 -->
      <g transform="translate(265.283276 270.493438) scale(0.1 -0.1)">
       <defs>
        <path id="Helvetica-37" d="M 3347 4400 
L 3347 3909 
Q 3131 3700 2773 3181 
Q 2416 2663 2141 2063 
Q 1869 1478 1728 997 
Q 1638 688 1494 0 
L 872 0 
Q 1084 1281 1809 2550 
Q 2238 3294 2709 3834 
L 234 3834 
L 234 4400 
L 3347 4400 
z
" transform="scale(0.015625)"/>
       </defs>
       <use xlink:href="#Helvetica-37"/>
      </g>
     </g>
    </g>
    <g id="xtick_8">
     <g id="line2d_8">
      <g>
       <use xlink:href="#mb53d5a6a3a" x="294.741036" y="256.32" style="stroke: #000000; stroke-width: 0.8"/>
      </g>
     </g>
     <g id="text_8">
      <!-- 8 -->
      <g transform="translate(291.960567 270.493438) scale(0.1 -0.1)">
       <defs>
        <path id="Helvetica-38" d="M 1741 2600 
Q 2113 2600 2322 2808 
Q 2531 3016 2531 3303 
Q 2531 3553 2331 3762 
Q 2131 3972 1722 3972 
Q 1316 3972 1134 3762 
Q 953 3553 953 3272 
Q 953 2956 1187 2778 
Q 1422 2600 1741 2600 
z
M 1775 384 
Q 2166 384 2423 595 
Q 2681 806 2681 1225 
Q 2681 1659 2415 1884 
Q 2150 2109 1734 2109 
Q 1331 2109 1076 1879 
Q 822 1650 822 1244 
Q 822 894 1055 639 
Q 1288 384 1775 384 
z
M 975 2384 
Q 741 2484 609 2619 
Q 363 2869 363 3269 
Q 363 3769 725 4128 
Q 1088 4488 1753 4488 
Q 2397 4488 2762 4148 
Q 3128 3809 3128 3356 
Q 3128 2938 2916 2678 
Q 2797 2531 2547 2391 
Q 2825 2263 2984 2097 
Q 3281 1784 3281 1284 
Q 3281 694 2884 283 
Q 2488 -128 1763 -128 
Q 1109 -128 657 226 
Q 206 581 206 1256 
Q 206 1653 400 1942 
Q 594 2231 975 2384 
z
" transform="scale(0.015625)"/>
       </defs>
       <use xlink:href="#Helvetica-38"/>
      </g>
     </g>
    </g>
    <g id="xtick_9">
     <g id="line2d_9">
      <g>
       <use xlink:href="#mb53d5a6a3a" x="321.418327" y="256.32" style="stroke: #000000; stroke-width: 0.8"/>
      </g>
     </g>
     <g id="text_9">
      <!-- 9 -->
      <g transform="translate(318.637858 270.493438) scale(0.1 -0.1)">
       <defs>
        <path id="Helvetica-39" d="M 850 1081 
Q 875 616 1209 438 
Q 1381 344 1597 344 
Q 2000 344 2284 680 
Q 2569 1016 2688 2044 
Q 2500 1747 2223 1626 
Q 1947 1506 1628 1506 
Q 981 1506 604 1909 
Q 228 2313 228 2947 
Q 228 3556 600 4018 
Q 972 4481 1697 4481 
Q 2675 4481 3047 3600 
Q 3253 3116 3253 2388 
Q 3253 1566 3006 931 
Q 2597 -125 1619 -125 
Q 963 -125 622 219 
Q 281 563 281 1081 
L 850 1081 
z
M 1703 2000 
Q 2038 2000 2314 2220 
Q 2591 2441 2591 2991 
Q 2591 3484 2342 3726 
Q 2094 3969 1709 3969 
Q 1297 3969 1055 3692 
Q 813 3416 813 2953 
Q 813 2516 1025 2258 
Q 1238 2000 1703 2000 
z
" transform="scale(0.015625)"/>
       </defs>
       <use xlink:href="#Helvetica-39"/>
      </g>
     </g>
    </g>
    <g id="xtick_10">
     <g id="line2d_10">
      <g>
       <use xlink:href="#mb53d5a6a3a" x="348.095618" y="256.32" style="stroke: #000000; stroke-width: 0.8"/>
      </g>
     </g>
     <g id="text_10">
      <!-- 10 -->
      <g transform="translate(342.53468 270.493438) scale(0.1 -0.1)">
       <defs>
        <path id="Helvetica-30" d="M 1731 4475 
Q 2600 4475 2988 3759 
Q 3288 3206 3288 2244 
Q 3288 1331 3016 734 
Q 2622 -122 1728 -122 
Q 922 -122 528 578 
Q 200 1163 200 2147 
Q 200 2909 397 3456 
Q 766 4475 1731 4475 
z
M 1725 391 
Q 2163 391 2422 778 
Q 2681 1166 2681 2222 
Q 2681 2984 2493 3476 
Q 2306 3969 1766 3969 
Q 1269 3969 1039 3501 
Q 809 3034 809 2125 
Q 809 1441 956 1025 
Q 1181 391 1725 391 
z
" transform="scale(0.015625)"/>
       </defs>
       <use xlink:href="#Helvetica-31"/>
       <use xlink:href="#Helvetica-30" x="55.615234"/>
      </g>
     </g>
    </g>
    <g id="xtick_11">
     <g id="line2d_11">
      <g>
       <use xlink:href="#mb53d5a6a3a" x="374.772908" y="256.32" style="stroke: #000000; stroke-width: 0.8"/>
      </g>
     </g>
     <g id="text_11">
      <!-- 11 -->
      <g transform="translate(369.211971 270.493438) scale(0.1 -0.1)">
       <use xlink:href="#Helvetica-31"/>
       <use xlink:href="#Helvetica-31" x="55.615234"/>
      </g>
     </g>
    </g>
    <g id="xtick_12">
     <g id="line2d_12">
      <g>
       <use xlink:href="#mb53d5a6a3a" x="401.450199" y="256.32" style="stroke: #000000; stroke-width: 0.8"/>
      </g>
     </g>
     <g id="text_12">
      <!-- 12 -->
      <g transform="translate(395.889262 270.493438) scale(0.1 -0.1)">
       <use xlink:href="#Helvetica-31"/>
       <use xlink:href="#Helvetica-32" x="55.615234"/>
      </g>
     </g>
    </g>
    <g id="xtick_13">
     <g id="line2d_13">
      <g>
       <use xlink:href="#mb53d5a6a3a" x="428.12749" y="256.32" style="stroke: #000000; stroke-width: 0.8"/>
      </g>
     </g>
     <g id="text_13">
      <!-- 13 -->
      <g transform="translate(422.566553 270.493438) scale(0.1 -0.1)">
       <use xlink:href="#Helvetica-31"/>
       <use xlink:href="#Helvetica-33" x="55.615234"/>
      </g>
     </g>
    </g>
    <g id="xtick_14">
     <g id="line2d_14">
      <g>
       <use xlink:href="#mb53d5a6a3a" x="454.804781" y="256.32" style="stroke: #000000; stroke-width: 0.8"/>
      </g>
     </g>
     <g id="text_14">
      <!-- 14 -->
      <g transform="translate(449.243843 270.493438) scale(0.1 -0.1)">
       <use xlink:href="#Helvetica-31"/>
       <use xlink:href="#Helvetica-34" x="55.615234"/>
      </g>
     </g>
    </g>
    <g id="xtick_15">
     <g id="line2d_15">
      <g>
       <use xlink:href="#mb53d5a6a3a" x="481.482072" y="256.32" style="stroke: #000000; stroke-width: 0.8"/>
      </g>
     </g>
     <g id="text_15">
      <!-- 15 -->
      <g transform="translate(475.921134 270.493438) scale(0.1 -0.1)">
       <use xlink:href="#Helvetica-31"/>
       <use xlink:href="#Helvetica-35" x="55.615234"/>
      </g>
     </g>
    </g>
    <g id="xtick_16">
     <g id="line2d_16">
      <g>
       <use xlink:href="#mb53d5a6a3a" x="508.159363" y="256.32" style="stroke: #000000; stroke-width: 0.8"/>
      </g>
     </g>
     <g id="text_16">
      <!-- 16 -->
      <g transform="translate(502.598425 270.493438) scale(0.1 -0.1)">
       <use xlink:href="#Helvetica-31"/>
       <use xlink:href="#Helvetica-36" x="55.615234"/>
      </g>
     </g>
    </g>
    <g id="xtick_17">
     <g id="line2d_17">
      <g>
       <use xlink:href="#mb53d5a6a3a" x="534.836653" y="256.32" style="stroke: #000000; stroke-width: 0.8"/>
      </g>
     </g>
     <g id="text_17">
      <!-- 17 -->
      <g transform="translate(529.275716 270.493438) scale(0.1 -0.1)">
       <use xlink:href="#Helvetica-31"/>
       <use xlink:href="#Helvetica-37" x="55.615234"/>
      </g>
     </g>
    </g>
    <g id="xtick_18">
     <g id="line2d_18">
      <g>
       <use xlink:href="#mb53d5a6a3a" x="561.513944" y="256.32" style="stroke: #000000; stroke-width: 0.8"/>
      </g>
     </g>
     <g id="text_18">
      <!-- 18 -->
      <g transform="translate(555.953007 270.493438) scale(0.1 -0.1)">
       <use xlink:href="#Helvetica-31"/>
       <use xlink:href="#Helvetica-38" x="55.615234"/>
      </g>
     </g>
    </g>
    <g id="xtick_19">
     <g id="line2d_19">
      <g>
       <use xlink:href="#mb53d5a6a3a" x="588.191235" y="256.32" style="stroke: #000000; stroke-width: 0.8"/>
      </g>
     </g>
     <g id="text_19">
      <!-- 19 -->
      <g transform="translate(582.630298 270.493438) scale(0.1 -0.1)">
       <use xlink:href="#Helvetica-31"/>
       <use xlink:href="#Helvetica-39" x="55.615234"/>
      </g>
     </g>
    </g>
    <g id="xtick_20">
     <g id="line2d_20">
      <g>
       <use xlink:href="#mb53d5a6a3a" x="614.868526" y="256.32" style="stroke: #000000; stroke-width: 0.8"/>
      </g>
     </g>
     <g id="text_20">
      <!-- 20 -->
      <g transform="translate(609.307588 270.493438) scale(0.1 -0.1)">
       <use xlink:href="#Helvetica-32"/>
       <use xlink:href="#Helvetica-30" x="55.615234"/>
      </g>
     </g>
    </g>
    <g id="xtick_21">
     <g id="line2d_21">
      <g>
       <use xlink:href="#mb53d5a6a3a" x="641.545817" y="256.32" style="stroke: #000000; stroke-width: 0.8"/>
      </g>
     </g>
     <g id="text_21">
      <!-- 21 -->
      <g transform="translate(635.984879 270.493438) scale(0.1 -0.1)">
       <use xlink:href="#Helvetica-32"/>
       <use xlink:href="#Helvetica-31" x="55.615234"/>
      </g>
     </g>
    </g>
    <g id="xtick_22">
     <g id="line2d_22">
      <g>
       <use xlink:href="#mb53d5a6a3a" x="668.223108" y="256.32" style="stroke: #000000; stroke-width: 0.8"/>
      </g>
     </g>
     <g id="text_22">
      <!-- 22 -->
      <g transform="translate(662.66217 270.493438) scale(0.1 -0.1)">
       <use xlink:href="#Helvetica-32"/>
       <use xlink:href="#Helvetica-32" x="55.615234"/>
      </g>
     </g>
    </g>
    <g id="xtick_23">
     <g id="line2d_23">
      <g>
       <use xlink:href="#mb53d5a6a3a" x="694.900398" y="256.32" style="stroke: #000000; stroke-width: 0.8"/>
      </g>
     </g>
     <g id="text_23">
      <!-- 23 -->
      <g transform="translate(689.339461 270.493438) scale(0.1 -0.1)">
       <use xlink:href="#Helvetica-32"/>
       <use xlink:href="#Helvetica-33" x="55.615234"/>
      </g>
     </g>
    </g>
    <g id="xtick_24">
     <g id="line2d_24">
      <g>
       <use xlink:href="#mb53d5a6a3a" x="721.577689" y="256.32" style="stroke: #000000; stroke-width: 0.8"/>
      </g>
     </g>
     <g id="text_24">
      <!-- 24 -->
      <g transform="translate(716.016752 270.493438) scale(0.1 -0.1)">
       <use xlink:href="#Helvetica-32"/>
       <use xlink:href="#Helvetica-34" x="55.615234"/>
      </g>
     </g>
    </g>
    <g id="xtick_25">
     <g id="line2d_25">
      <g>
       <use xlink:href="#mb53d5a6a3a" x="748.25498" y="256.32" style="stroke: #000000; stroke-width: 0.8"/>
      </g>
     </g>
     <g id="text_25">
      <!-- 25 -->
      <g transform="translate(742.694043 270.493438) scale(0.1 -0.1)">
       <use xlink:href="#Helvetica-32"/>
       <use xlink:href="#Helvetica-35" x="55.615234"/>
      </g>
     </g>
    </g>
    <g id="text_26">
     <!-- number of hidden neurons -->
     <g transform="translate(384.43125 283.75125) scale(0.1 -0.1)">
      <defs>
       <path id="Helvetica-6e" d="M 413 3347 
L 947 3347 
L 947 2872 
Q 1184 3166 1450 3294 
Q 1716 3422 2041 3422 
Q 2753 3422 3003 2925 
Q 3141 2653 3141 2147 
L 3141 0 
L 2569 0 
L 2569 2109 
Q 2569 2416 2478 2603 
Q 2328 2916 1934 2916 
Q 1734 2916 1606 2875 
Q 1375 2806 1200 2600 
Q 1059 2434 1017 2257 
Q 975 2081 975 1753 
L 975 0 
L 413 0 
L 413 3347 
z
M 1734 3428 
L 1734 3428 
z
" transform="scale(0.015625)"/>
       <path id="Helvetica-75" d="M 975 3347 
L 975 1125 
Q 975 869 1056 706 
Q 1206 406 1616 406 
Q 2203 406 2416 931 
Q 2531 1213 2531 1703 
L 2531 3347 
L 3094 3347 
L 3094 0 
L 2563 0 
L 2569 494 
Q 2459 303 2297 172 
Q 1975 -91 1516 -91 
Q 800 -91 541 388 
Q 400 644 400 1072 
L 400 3347 
L 975 3347 
z
M 1747 3428 
L 1747 3428 
z
" transform="scale(0.015625)"/>
       <path id="Helvetica-6d" d="M 413 3347 
L 969 3347 
L 969 2872 
Q 1169 3119 1331 3231 
Q 1609 3422 1963 3422 
Q 2363 3422 2606 3225 
Q 2744 3113 2856 2894 
Q 3044 3163 3297 3292 
Q 3550 3422 3866 3422 
Q 4541 3422 4784 2934 
Q 4916 2672 4916 2228 
L 4916 0 
L 4331 0 
L 4331 2325 
Q 4331 2659 4164 2784 
Q 3997 2909 3756 2909 
Q 3425 2909 3186 2687 
Q 2947 2466 2947 1947 
L 2947 0 
L 2375 0 
L 2375 2184 
Q 2375 2525 2294 2681 
Q 2166 2916 1816 2916 
Q 1497 2916 1236 2669 
Q 975 2422 975 1775 
L 975 0 
L 413 0 
L 413 3347 
z
" transform="scale(0.015625)"/>
       <path id="Helvetica-62" d="M 369 4606 
L 916 4606 
L 916 2941 
Q 1100 3181 1356 3307 
Q 1613 3434 1913 3434 
Q 2538 3434 2927 3004 
Q 3316 2575 3316 1738 
Q 3316 944 2931 419 
Q 2547 -106 1866 -106 
Q 1484 -106 1222 78 
Q 1066 188 888 428 
L 888 0 
L 369 0 
L 369 4606 
z
M 1831 391 
Q 2288 391 2514 753 
Q 2741 1116 2741 1709 
Q 2741 2238 2514 2584 
Q 2288 2931 1847 2931 
Q 1463 2931 1173 2647 
Q 884 2363 884 1709 
Q 884 1238 1003 944 
Q 1225 391 1831 391 
z
" transform="scale(0.015625)"/>
       <path id="Helvetica-65" d="M 1806 3422 
Q 2163 3422 2497 3255 
Q 2831 3088 3006 2822 
Q 3175 2569 3231 2231 
Q 3281 2000 3281 1494 
L 828 1494 
Q 844 984 1069 676 
Q 1294 369 1766 369 
Q 2206 369 2469 659 
Q 2619 828 2681 1050 
L 3234 1050 
Q 3213 866 3089 639 
Q 2966 413 2813 269 
Q 2556 19 2178 -69 
Q 1975 -119 1719 -119 
Q 1094 -119 659 336 
Q 225 791 225 1609 
Q 225 2416 662 2919 
Q 1100 3422 1806 3422 
z
M 2703 1941 
Q 2669 2306 2544 2525 
Q 2313 2931 1772 2931 
Q 1384 2931 1121 2651 
Q 859 2372 844 1941 
L 2703 1941 
z
M 1753 3428 
L 1753 3428 
z
" transform="scale(0.015625)"/>
       <path id="Helvetica-72" d="M 428 3347 
L 963 3347 
L 963 2769 
Q 1028 2938 1284 3180 
Q 1541 3422 1875 3422 
Q 1891 3422 1928 3419 
Q 1966 3416 2056 3406 
L 2056 2813 
Q 2006 2822 1964 2825 
Q 1922 2828 1872 2828 
Q 1447 2828 1219 2554 
Q 991 2281 991 1925 
L 991 0 
L 428 0 
L 428 3347 
z
" transform="scale(0.015625)"/>
       <path id="Helvetica-20" transform="scale(0.015625)"/>
       <path id="Helvetica-6f" d="M 1741 363 
Q 2300 363 2508 786 
Q 2716 1209 2716 1728 
Q 2716 2197 2566 2491 
Q 2328 2953 1747 2953 
Q 1231 2953 997 2559 
Q 763 2166 763 1609 
Q 763 1075 997 719 
Q 1231 363 1741 363 
z
M 1763 3444 
Q 2409 3444 2856 3012 
Q 3303 2581 3303 1744 
Q 3303 934 2909 406 
Q 2516 -122 1688 -122 
Q 997 -122 590 345 
Q 184 813 184 1600 
Q 184 2444 612 2944 
Q 1041 3444 1763 3444 
z
M 1744 3428 
L 1744 3428 
z
" transform="scale(0.015625)"/>
       <path id="Helvetica-66" d="M 553 3856 
Q 566 4206 675 4369 
Q 872 4656 1434 4656 
Q 1488 4656 1544 4653 
Q 1600 4650 1672 4644 
L 1672 4131 
Q 1584 4138 1545 4139 
Q 1506 4141 1472 4141 
Q 1216 4141 1166 4008 
Q 1116 3875 1116 3331 
L 1672 3331 
L 1672 2888 
L 1109 2888 
L 1109 0 
L 553 0 
L 553 2888 
L 88 2888 
L 88 3331 
L 553 3331 
L 553 3856 
z
" transform="scale(0.015625)"/>
       <path id="Helvetica-68" d="M 413 4606 
L 975 4606 
L 975 2894 
Q 1175 3147 1334 3250 
Q 1606 3428 2013 3428 
Q 2741 3428 3000 2919 
Q 3141 2641 3141 2147 
L 3141 0 
L 2563 0 
L 2563 2109 
Q 2563 2478 2469 2650 
Q 2316 2925 1894 2925 
Q 1544 2925 1259 2684 
Q 975 2444 975 1775 
L 975 0 
L 413 0 
L 413 4606 
z
" transform="scale(0.015625)"/>
       <path id="Helvetica-69" d="M 413 3331 
L 984 3331 
L 984 0 
L 413 0 
L 413 3331 
z
M 413 4591 
L 984 4591 
L 984 3953 
L 413 3953 
L 413 4591 
z
" transform="scale(0.015625)"/>
       <path id="Helvetica-64" d="M 769 1634 
Q 769 1097 997 734 
Q 1225 372 1728 372 
Q 2119 372 2370 708 
Q 2622 1044 2622 1672 
Q 2622 2306 2362 2611 
Q 2103 2916 1722 2916 
Q 1297 2916 1033 2591 
Q 769 2266 769 1634 
z
M 1616 3406 
Q 2000 3406 2259 3244 
Q 2409 3150 2600 2916 
L 2600 4606 
L 3141 4606 
L 3141 0 
L 2634 0 
L 2634 466 
Q 2438 156 2169 18 
Q 1900 -119 1553 -119 
Q 994 -119 584 351 
Q 175 822 175 1603 
Q 175 2334 548 2870 
Q 922 3406 1616 3406 
z
" transform="scale(0.015625)"/>
       <path id="Helvetica-73" d="M 747 1050 
Q 772 769 888 619 
Q 1100 347 1625 347 
Q 1938 347 2175 483 
Q 2413 619 2413 903 
Q 2413 1119 2222 1231 
Q 2100 1300 1741 1391 
L 1294 1503 
Q 866 1609 663 1741 
Q 300 1969 300 2372 
Q 300 2847 642 3140 
Q 984 3434 1563 3434 
Q 2319 3434 2653 2991 
Q 2863 2709 2856 2384 
L 2325 2384 
Q 2309 2575 2191 2731 
Q 1997 2953 1519 2953 
Q 1200 2953 1036 2831 
Q 872 2709 872 2509 
Q 872 2291 1088 2159 
Q 1213 2081 1456 2022 
L 1828 1931 
Q 2434 1784 2641 1647 
Q 2969 1431 2969 969 
Q 2969 522 2630 197 
Q 2291 -128 1597 -128 
Q 850 -128 539 211 
Q 228 550 206 1050 
L 747 1050 
z
M 1578 3428 
L 1578 3428 
z
" transform="scale(0.015625)"/>
      </defs>
      <use xlink:href="#Helvetica-6e"/>
      <use xlink:href="#Helvetica-75" x="55.615234"/>
      <use xlink:href="#Helvetica-6d" x="111.230469"/>
      <use xlink:href="#Helvetica-62" x="194.53125"/>
      <use xlink:href="#Helvetica-65" x="250.146484"/>
      <use xlink:href="#Helvetica-72" x="305.761719"/>
      <use xlink:href="#Helvetica-20" x="339.0625"/>
      <use xlink:href="#Helvetica-6f" x="366.845703"/>
      <use xlink:href="#Helvetica-66" x="422.460938"/>
      <use xlink:href="#Helvetica-20" x="450.244141"/>
      <use xlink:href="#Helvetica-68" x="478.027344"/>
      <use xlink:href="#Helvetica-69" x="533.642578"/>
      <use xlink:href="#Helvetica-64" x="555.859375"/>
      <use xlink:href="#Helvetica-64" x="611.474609"/>
      <use xlink:href="#Helvetica-65" x="667.089844"/>
      <use xlink:href="#Helvetica-6e" x="722.705078"/>
      <use xlink:href="#Helvetica-20" x="778.320312"/>
      <use xlink:href="#Helvetica-6e" x="806.103516"/>
      <use xlink:href="#Helvetica-65" x="861.71875"/>
      <use xlink:href="#Helvetica-75" x="917.333984"/>
      <use xlink:href="#Helvetica-72" x="972.949219"/>
      <use xlink:href="#Helvetica-6f" x="1006.25"/>
      <use xlink:href="#Helvetica-6e" x="1061.865234"/>
      <use xlink:href="#Helvetica-73" x="1117.480469"/>
     </g>
    </g>
   </g>
   <g id="matplotlib.axis_2">
    <g id="ytick_1">
     <g id="line2d_26">
      <defs>
       <path id="mf62168552b" d="M 0 0 
L -3.5 0 
" style="stroke: #000000; stroke-width: 0.8"/>
      </defs>
      <g>
       <use xlink:href="#mf62168552b" x="108" y="241.337431" style="stroke: #000000; stroke-width: 0.8"/>
      </g>
     </g>
     <g id="text_27">
      <!-- 25 -->
      <g transform="translate(89.878125 244.92415) scale(0.1 -0.1)">
       <use xlink:href="#Helvetica-32"/>
       <use xlink:href="#Helvetica-35" x="55.615234"/>
      </g>
     </g>
    </g>
    <g id="ytick_2">
     <g id="line2d_27">
      <g>
       <use xlink:href="#mf62168552b" x="108" y="210.696377" style="stroke: #000000; stroke-width: 0.8"/>
      </g>
     </g>
     <g id="text_28">
      <!-- 50 -->
      <g transform="translate(89.878125 214.283095) scale(0.1 -0.1)">
       <use xlink:href="#Helvetica-35"/>
       <use xlink:href="#Helvetica-30" x="55.615234"/>
      </g>
     </g>
    </g>
    <g id="ytick_3">
     <g id="line2d_28">
      <g>
       <use xlink:href="#mf62168552b" x="108" y="180.055322" style="stroke: #000000; stroke-width: 0.8"/>
      </g>
     </g>
     <g id="text_29">
      <!-- 75 -->
      <g transform="translate(89.878125 183.642041) scale(0.1 -0.1)">
       <use xlink:href="#Helvetica-37"/>
       <use xlink:href="#Helvetica-35" x="55.615234"/>
      </g>
     </g>
    </g>
    <g id="ytick_4">
     <g id="line2d_29">
      <g>
       <use xlink:href="#mf62168552b" x="108" y="149.414268" style="stroke: #000000; stroke-width: 0.8"/>
      </g>
     </g>
     <g id="text_30">
      <!-- 100 -->
      <g transform="translate(84.317188 153.000986) scale(0.1 -0.1)">
       <use xlink:href="#Helvetica-31"/>
       <use xlink:href="#Helvetica-30" x="55.615234"/>
       <use xlink:href="#Helvetica-30" x="111.230469"/>
      </g>
     </g>
    </g>
    <g id="ytick_5">
     <g id="line2d_30">
      <g>
       <use xlink:href="#mf62168552b" x="108" y="118.773213" style="stroke: #000000; stroke-width: 0.8"/>
      </g>
     </g>
     <g id="text_31">
      <!-- 125 -->
      <g transform="translate(84.317188 122.359932) scale(0.1 -0.1)">
       <use xlink:href="#Helvetica-31"/>
       <use xlink:href="#Helvetica-32" x="55.615234"/>
       <use xlink:href="#Helvetica-35" x="111.230469"/>
      </g>
     </g>
    </g>
    <g id="ytick_6">
     <g id="line2d_31">
      <g>
       <use xlink:href="#mf62168552b" x="108" y="88.132159" style="stroke: #000000; stroke-width: 0.8"/>
      </g>
     </g>
     <g id="text_32">
      <!-- 150 -->
      <g transform="translate(84.317188 91.718877) scale(0.1 -0.1)">
       <use xlink:href="#Helvetica-31"/>
       <use xlink:href="#Helvetica-35" x="55.615234"/>
       <use xlink:href="#Helvetica-30" x="111.230469"/>
      </g>
     </g>
    </g>
    <g id="ytick_7">
     <g id="line2d_32">
      <g>
       <use xlink:href="#mf62168552b" x="108" y="57.491104" style="stroke: #000000; stroke-width: 0.8"/>
      </g>
     </g>
     <g id="text_33">
      <!-- 175 -->
      <g transform="translate(84.317188 61.077823) scale(0.1 -0.1)">
       <use xlink:href="#Helvetica-31"/>
       <use xlink:href="#Helvetica-37" x="55.615234"/>
       <use xlink:href="#Helvetica-35" x="111.230469"/>
      </g>
     </g>
    </g>
   </g>
   <g id="LineCollection_1">
    <path clip-path="url(#pfe31269e76)" style="fill: none; stroke: #1f77b4; stroke-opacity: 0.7; stroke-width: 1.5"/>
    <path clip-path="url(#pfe31269e76)" style="fill: none; stroke: #1f77b4; stroke-opacity: 0.7; stroke-width: 1.5"/>
    <path d="M 161.354582 246.24 
L 161.354582 246.24 
" clip-path="url(#pfe31269e76)" style="fill: none; stroke: #1f77b4; stroke-opacity: 0.7; stroke-width: 1.5"/>
    <path clip-path="url(#pfe31269e76)" style="fill: none; stroke: #1f77b4; stroke-opacity: 0.7; stroke-width: 1.5"/>
    <path clip-path="url(#pfe31269e76)" style="fill: none; stroke: #1f77b4; stroke-opacity: 0.7; stroke-width: 1.5"/>
    <path d="M 241.386454 232.993193 
L 241.386454 223.534637 
" clip-path="url(#pfe31269e76)" style="fill: none; stroke: #1f77b4; stroke-opacity: 0.7; stroke-width: 1.5"/>
    <path d="M 268.063745 213.417869 
L 268.063745 153.229533 
" clip-path="url(#pfe31269e76)" style="fill: none; stroke: #1f77b4; stroke-opacity: 0.7; stroke-width: 1.5"/>
    <path d="M 294.741036 206.714854 
L 294.741036 166.469307 
" clip-path="url(#pfe31269e76)" style="fill: none; stroke: #1f77b4; stroke-opacity: 0.7; stroke-width: 1.5"/>
    <path d="M 321.418327 180.055322 
L 321.418327 157.993763 
" clip-path="url(#pfe31269e76)" style="fill: none; stroke: #1f77b4; stroke-opacity: 0.7; stroke-width: 1.5"/>
    <path d="M 348.095618 195.853797 
L 348.095618 167.525226 
" clip-path="url(#pfe31269e76)" style="fill: none; stroke: #1f77b4; stroke-opacity: 0.7; stroke-width: 1.5"/>
    <path d="M 374.772908 240.111789 
L 374.772908 216.824588 
" clip-path="url(#pfe31269e76)" style="fill: none; stroke: #1f77b4; stroke-opacity: 0.7; stroke-width: 1.5"/>
    <path d="M 401.450199 187.323938 
L 401.450199 128.663588 
" clip-path="url(#pfe31269e76)" style="fill: none; stroke: #1f77b4; stroke-opacity: 0.7; stroke-width: 1.5"/>
    <path d="M 428.12749 170.723377 
L 428.12749 137.093201 
" clip-path="url(#pfe31269e76)" style="fill: none; stroke: #1f77b4; stroke-opacity: 0.7; stroke-width: 1.5"/>
    <path d="M 454.804781 159.222867 
L 454.804781 111.007351 
" clip-path="url(#pfe31269e76)" style="fill: none; stroke: #1f77b4; stroke-opacity: 0.7; stroke-width: 1.5"/>
    <path d="M 481.482072 183.947517 
L 481.482072 157.369947 
" clip-path="url(#pfe31269e76)" style="fill: none; stroke: #1f77b4; stroke-opacity: 0.7; stroke-width: 1.5"/>
    <path d="M 508.159363 166.95529 
L 508.159363 59.968904 
" clip-path="url(#pfe31269e76)" style="fill: none; stroke: #1f77b4; stroke-opacity: 0.7; stroke-width: 1.5"/>
    <path d="M 534.836653 135.932204 
L 534.836653 116.321929 
" clip-path="url(#pfe31269e76)" style="fill: none; stroke: #1f77b4; stroke-opacity: 0.7; stroke-width: 1.5"/>
    <path d="M 561.513944 175.747436 
L 561.513944 44.64 
" clip-path="url(#pfe31269e76)" style="fill: none; stroke: #1f77b4; stroke-opacity: 0.7; stroke-width: 1.5"/>
    <path d="M 588.191235 197.214313 
L 588.191235 183.732249 
" clip-path="url(#pfe31269e76)" style="fill: none; stroke: #1f77b4; stroke-opacity: 0.7; stroke-width: 1.5"/>
    <path d="M 614.868526 169.024543 
L 614.868526 159.219405 
" clip-path="url(#pfe31269e76)" style="fill: none; stroke: #1f77b4; stroke-opacity: 0.7; stroke-width: 1.5"/>
    <path d="M 641.545817 213.381016 
L 641.545817 145.912534 
" clip-path="url(#pfe31269e76)" style="fill: none; stroke: #1f77b4; stroke-opacity: 0.7; stroke-width: 1.5"/>
    <path d="M 668.223108 188.634817 
L 668.223108 162.896332 
" clip-path="url(#pfe31269e76)" style="fill: none; stroke: #1f77b4; stroke-opacity: 0.7; stroke-width: 1.5"/>
    <path d="M 694.900398 180.950259 
L 694.900398 101.53638 
" clip-path="url(#pfe31269e76)" style="fill: none; stroke: #1f77b4; stroke-opacity: 0.7; stroke-width: 1.5"/>
    <path d="M 721.577689 181.996586 
L 721.577689 71.891736 
" clip-path="url(#pfe31269e76)" style="fill: none; stroke: #1f77b4; stroke-opacity: 0.7; stroke-width: 1.5"/>
    <path d="M 748.25498 179.455592 
L 748.25498 131.629365 
" clip-path="url(#pfe31269e76)" style="fill: none; stroke: #1f77b4; stroke-opacity: 0.7; stroke-width: 1.5"/>
   </g>
   <g id="LineCollection_2">
    <path clip-path="url(#pfe31269e76)" style="fill: none; stroke: #ff7f0e; stroke-opacity: 0.7; stroke-width: 1.5"/>
    <path clip-path="url(#pfe31269e76)" style="fill: none; stroke: #ff7f0e; stroke-opacity: 0.7; stroke-width: 1.5"/>
    <path d="M 161.354582 246.24 
L 161.354582 246.24 
" clip-path="url(#pfe31269e76)" style="fill: none; stroke: #ff7f0e; stroke-opacity: 0.7; stroke-width: 1.5"/>
    <path clip-path="url(#pfe31269e76)" style="fill: none; stroke: #ff7f0e; stroke-opacity: 0.7; stroke-width: 1.5"/>
    <path clip-path="url(#pfe31269e76)" style="fill: none; stroke: #ff7f0e; stroke-opacity: 0.7; stroke-width: 1.5"/>
    <path d="M 241.386454 232.993193 
L 241.386454 223.534637 
" clip-path="url(#pfe31269e76)" style="fill: none; stroke: #ff7f0e; stroke-opacity: 0.7; stroke-width: 1.5"/>
    <path d="M 268.063745 228.363045 
L 268.063745 224.896405 
" clip-path="url(#pfe31269e76)" style="fill: none; stroke: #ff7f0e; stroke-opacity: 0.7; stroke-width: 1.5"/>
    <path d="M 294.741036 223.036408 
L 294.741036 208.978578 
" clip-path="url(#pfe31269e76)" style="fill: none; stroke: #ff7f0e; stroke-opacity: 0.7; stroke-width: 1.5"/>
    <path d="M 321.418327 218.05023 
L 321.418327 157.993763 
" clip-path="url(#pfe31269e76)" style="fill: none; stroke: #ff7f0e; stroke-opacity: 0.7; stroke-width: 1.5"/>
    <path d="M 348.095618 207.986336 
L 348.095618 188.893574 
" clip-path="url(#pfe31269e76)" style="fill: none; stroke: #ff7f0e; stroke-opacity: 0.7; stroke-width: 1.5"/>
    <path d="M 374.772908 240.111789 
L 374.772908 216.824588 
" clip-path="url(#pfe31269e76)" style="fill: none; stroke: #ff7f0e; stroke-opacity: 0.7; stroke-width: 1.5"/>
    <path d="M 401.450199 223.796061 
L 401.450199 191.877029 
" clip-path="url(#pfe31269e76)" style="fill: none; stroke: #ff7f0e; stroke-opacity: 0.7; stroke-width: 1.5"/>
    <path d="M 428.12749 211.225306 
L 428.12749 143.165675 
" clip-path="url(#pfe31269e76)" style="fill: none; stroke: #ff7f0e; stroke-opacity: 0.7; stroke-width: 1.5"/>
    <path d="M 454.804781 200.85797 
L 454.804781 130.654357 
" clip-path="url(#pfe31269e76)" style="fill: none; stroke: #ff7f0e; stroke-opacity: 0.7; stroke-width: 1.5"/>
    <path d="M 481.482072 214.517993 
L 481.482072 197.069623 
" clip-path="url(#pfe31269e76)" style="fill: none; stroke: #ff7f0e; stroke-opacity: 0.7; stroke-width: 1.5"/>
    <path d="M 508.159363 226.851419 
L 508.159363 210.066136 
" clip-path="url(#pfe31269e76)" style="fill: none; stroke: #ff7f0e; stroke-opacity: 0.7; stroke-width: 1.5"/>
    <path d="M 534.836653 169.024543 
L 534.836653 135.932204 
" clip-path="url(#pfe31269e76)" style="fill: none; stroke: #ff7f0e; stroke-opacity: 0.7; stroke-width: 1.5"/>
    <path d="M 561.513944 218.875492 
L 561.513944 198.431787 
" clip-path="url(#pfe31269e76)" style="fill: none; stroke: #ff7f0e; stroke-opacity: 0.7; stroke-width: 1.5"/>
    <path d="M 588.191235 209.470735 
L 588.191235 197.214313 
" clip-path="url(#pfe31269e76)" style="fill: none; stroke: #ff7f0e; stroke-opacity: 0.7; stroke-width: 1.5"/>
    <path d="M 614.868526 214.373303 
L 614.868526 199.665597 
" clip-path="url(#pfe31269e76)" style="fill: none; stroke: #ff7f0e; stroke-opacity: 0.7; stroke-width: 1.5"/>
    <path d="M 641.545817 216.047947 
L 641.545817 211.881565 
" clip-path="url(#pfe31269e76)" style="fill: none; stroke: #ff7f0e; stroke-opacity: 0.7; stroke-width: 1.5"/>
    <path d="M 668.223108 222.952799 
L 668.223108 188.634817 
" clip-path="url(#pfe31269e76)" style="fill: none; stroke: #ff7f0e; stroke-opacity: 0.7; stroke-width: 1.5"/>
    <path d="M 694.900398 222.170544 
L 694.900398 188.599978 
" clip-path="url(#pfe31269e76)" style="fill: none; stroke: #ff7f0e; stroke-opacity: 0.7; stroke-width: 1.5"/>
    <path d="M 721.577689 221.881647 
L 721.577689 207.682054 
" clip-path="url(#pfe31269e76)" style="fill: none; stroke: #ff7f0e; stroke-opacity: 0.7; stroke-width: 1.5"/>
    <path d="M 748.25498 214.730377 
L 748.25498 208.296566 
" clip-path="url(#pfe31269e76)" style="fill: none; stroke: #ff7f0e; stroke-opacity: 0.7; stroke-width: 1.5"/>
   </g>
   <g id="line2d_33">
    <path d="M 161.354582 246.24 
M 241.386454 228.263915 
L 268.063745 183.323701 
L 294.741036 186.59208 
L 321.418327 169.024543 
L 348.095618 181.689512 
L 374.772908 228.468188 
L 401.450199 157.993763 
L 428.12749 153.908289 
L 454.804781 135.115109 
L 481.482072 170.658732 
L 508.159363 113.462097 
L 534.836653 126.127066 
L 561.513944 110.193718 
L 588.191235 190.473281 
L 614.868526 164.121974 
L 641.545817 179.646775 
L 668.223108 175.765575 
L 694.900398 141.24332 
L 721.577689 126.944161 
L 748.25498 155.542479 
" clip-path="url(#pfe31269e76)" style="fill: none; stroke: #1f77b4; stroke-opacity: 0.7; stroke-width: 1.5; stroke-linecap: square"/>
    <defs>
     <path id="mbd6a0eb3e7" d="M 0 3 
C 0.795609 3 1.55874 2.683901 2.12132 2.12132 
C 2.683901 1.55874 3 0.795609 3 0 
C 3 -0.795609 2.683901 -1.55874 2.12132 -2.12132 
C 1.55874 -2.683901 0.795609 -3 0 -3 
C -0.795609 -3 -1.55874 -2.683901 -2.12132 -2.12132 
C -2.683901 -1.55874 -3 -0.795609 -3 0 
C -3 0.795609 -2.683901 1.55874 -2.12132 2.12132 
C -1.55874 2.683901 -0.795609 3 0 3 
z
" style="stroke: #1f77b4; stroke-opacity: 0.7"/>
    </defs>
    <g clip-path="url(#pfe31269e76)">
     <use xlink:href="#mbd6a0eb3e7" x="161.354582" y="246.24" style="fill: #1f77b4; fill-opacity: 0.7; stroke: #1f77b4; stroke-opacity: 0.7"/>
     <use xlink:href="#mbd6a0eb3e7" x="241.386454" y="228.263915" style="fill: #1f77b4; fill-opacity: 0.7; stroke: #1f77b4; stroke-opacity: 0.7"/>
     <use xlink:href="#mbd6a0eb3e7" x="268.063745" y="183.323701" style="fill: #1f77b4; fill-opacity: 0.7; stroke: #1f77b4; stroke-opacity: 0.7"/>
     <use xlink:href="#mbd6a0eb3e7" x="294.741036" y="186.59208" style="fill: #1f77b4; fill-opacity: 0.7; stroke: #1f77b4; stroke-opacity: 0.7"/>
     <use xlink:href="#mbd6a0eb3e7" x="321.418327" y="169.024543" style="fill: #1f77b4; fill-opacity: 0.7; stroke: #1f77b4; stroke-opacity: 0.7"/>
     <use xlink:href="#mbd6a0eb3e7" x="348.095618" y="181.689512" style="fill: #1f77b4; fill-opacity: 0.7; stroke: #1f77b4; stroke-opacity: 0.7"/>
     <use xlink:href="#mbd6a0eb3e7" x="374.772908" y="228.468188" style="fill: #1f77b4; fill-opacity: 0.7; stroke: #1f77b4; stroke-opacity: 0.7"/>
     <use xlink:href="#mbd6a0eb3e7" x="401.450199" y="157.993763" style="fill: #1f77b4; fill-opacity: 0.7; stroke: #1f77b4; stroke-opacity: 0.7"/>
     <use xlink:href="#mbd6a0eb3e7" x="428.12749" y="153.908289" style="fill: #1f77b4; fill-opacity: 0.7; stroke: #1f77b4; stroke-opacity: 0.7"/>
     <use xlink:href="#mbd6a0eb3e7" x="454.804781" y="135.115109" style="fill: #1f77b4; fill-opacity: 0.7; stroke: #1f77b4; stroke-opacity: 0.7"/>
     <use xlink:href="#mbd6a0eb3e7" x="481.482072" y="170.658732" style="fill: #1f77b4; fill-opacity: 0.7; stroke: #1f77b4; stroke-opacity: 0.7"/>
     <use xlink:href="#mbd6a0eb3e7" x="508.159363" y="113.462097" style="fill: #1f77b4; fill-opacity: 0.7; stroke: #1f77b4; stroke-opacity: 0.7"/>
     <use xlink:href="#mbd6a0eb3e7" x="534.836653" y="126.127066" style="fill: #1f77b4; fill-opacity: 0.7; stroke: #1f77b4; stroke-opacity: 0.7"/>
     <use xlink:href="#mbd6a0eb3e7" x="561.513944" y="110.193718" style="fill: #1f77b4; fill-opacity: 0.7; stroke: #1f77b4; stroke-opacity: 0.7"/>
     <use xlink:href="#mbd6a0eb3e7" x="588.191235" y="190.473281" style="fill: #1f77b4; fill-opacity: 0.7; stroke: #1f77b4; stroke-opacity: 0.7"/>
     <use xlink:href="#mbd6a0eb3e7" x="614.868526" y="164.121974" style="fill: #1f77b4; fill-opacity: 0.7; stroke: #1f77b4; stroke-opacity: 0.7"/>
     <use xlink:href="#mbd6a0eb3e7" x="641.545817" y="179.646775" style="fill: #1f77b4; fill-opacity: 0.7; stroke: #1f77b4; stroke-opacity: 0.7"/>
     <use xlink:href="#mbd6a0eb3e7" x="668.223108" y="175.765575" style="fill: #1f77b4; fill-opacity: 0.7; stroke: #1f77b4; stroke-opacity: 0.7"/>
     <use xlink:href="#mbd6a0eb3e7" x="694.900398" y="141.24332" style="fill: #1f77b4; fill-opacity: 0.7; stroke: #1f77b4; stroke-opacity: 0.7"/>
     <use xlink:href="#mbd6a0eb3e7" x="721.577689" y="126.944161" style="fill: #1f77b4; fill-opacity: 0.7; stroke: #1f77b4; stroke-opacity: 0.7"/>
     <use xlink:href="#mbd6a0eb3e7" x="748.25498" y="155.542479" style="fill: #1f77b4; fill-opacity: 0.7; stroke: #1f77b4; stroke-opacity: 0.7"/>
    </g>
   </g>
   <g id="line2d_34">
    <path d="M 161.354582 246.24 
M 241.386454 228.263915 
L 268.063745 226.629725 
L 294.741036 216.007493 
L 321.418327 188.021996 
L 348.095618 198.439955 
L 374.772908 228.468188 
L 401.450199 207.836545 
L 428.12749 177.19549 
L 454.804781 165.756163 
L 481.482072 205.793808 
L 508.159363 218.458777 
L 534.836653 152.478373 
L 561.513944 208.65364 
L 588.191235 203.342524 
L 614.868526 207.01945 
L 641.545817 213.964756 
L 668.223108 205.793808 
L 694.900398 205.385261 
L 721.577689 214.781851 
L 748.25498 211.513472 
" clip-path="url(#pfe31269e76)" style="fill: none; stroke: #ff7f0e; stroke-opacity: 0.7; stroke-width: 1.5; stroke-linecap: square"/>
    <defs>
     <path id="m3d0fbaba1c" d="M 0 3 
C 0.795609 3 1.55874 2.683901 2.12132 2.12132 
C 2.683901 1.55874 3 0.795609 3 0 
C 3 -0.795609 2.683901 -1.55874 2.12132 -2.12132 
C 1.55874 -2.683901 0.795609 -3 0 -3 
C -0.795609 -3 -1.55874 -2.683901 -2.12132 -2.12132 
C -2.683901 -1.55874 -3 -0.795609 -3 0 
C -3 0.795609 -2.683901 1.55874 -2.12132 2.12132 
C -1.55874 2.683901 -0.795609 3 0 3 
z
" style="stroke: #ff7f0e; stroke-opacity: 0.7"/>
    </defs>
    <g clip-path="url(#pfe31269e76)">
     <use xlink:href="#m3d0fbaba1c" x="161.354582" y="246.24" style="fill: #ff7f0e; fill-opacity: 0.7; stroke: #ff7f0e; stroke-opacity: 0.7"/>
     <use xlink:href="#m3d0fbaba1c" x="241.386454" y="228.263915" style="fill: #ff7f0e; fill-opacity: 0.7; stroke: #ff7f0e; stroke-opacity: 0.7"/>
     <use xlink:href="#m3d0fbaba1c" x="268.063745" y="226.629725" style="fill: #ff7f0e; fill-opacity: 0.7; stroke: #ff7f0e; stroke-opacity: 0.7"/>
     <use xlink:href="#m3d0fbaba1c" x="294.741036" y="216.007493" style="fill: #ff7f0e; fill-opacity: 0.7; stroke: #ff7f0e; stroke-opacity: 0.7"/>
     <use xlink:href="#m3d0fbaba1c" x="321.418327" y="188.021996" style="fill: #ff7f0e; fill-opacity: 0.7; stroke: #ff7f0e; stroke-opacity: 0.7"/>
     <use xlink:href="#m3d0fbaba1c" x="348.095618" y="198.439955" style="fill: #ff7f0e; fill-opacity: 0.7; stroke: #ff7f0e; stroke-opacity: 0.7"/>
     <use xlink:href="#m3d0fbaba1c" x="374.772908" y="228.468188" style="fill: #ff7f0e; fill-opacity: 0.7; stroke: #ff7f0e; stroke-opacity: 0.7"/>
     <use xlink:href="#m3d0fbaba1c" x="401.450199" y="207.836545" style="fill: #ff7f0e; fill-opacity: 0.7; stroke: #ff7f0e; stroke-opacity: 0.7"/>
     <use xlink:href="#m3d0fbaba1c" x="428.12749" y="177.19549" style="fill: #ff7f0e; fill-opacity: 0.7; stroke: #ff7f0e; stroke-opacity: 0.7"/>
     <use xlink:href="#m3d0fbaba1c" x="454.804781" y="165.756163" style="fill: #ff7f0e; fill-opacity: 0.7; stroke: #ff7f0e; stroke-opacity: 0.7"/>
     <use xlink:href="#m3d0fbaba1c" x="481.482072" y="205.793808" style="fill: #ff7f0e; fill-opacity: 0.7; stroke: #ff7f0e; stroke-opacity: 0.7"/>
     <use xlink:href="#m3d0fbaba1c" x="508.159363" y="218.458777" style="fill: #ff7f0e; fill-opacity: 0.7; stroke: #ff7f0e; stroke-opacity: 0.7"/>
     <use xlink:href="#m3d0fbaba1c" x="534.836653" y="152.478373" style="fill: #ff7f0e; fill-opacity: 0.7; stroke: #ff7f0e; stroke-opacity: 0.7"/>
     <use xlink:href="#m3d0fbaba1c" x="561.513944" y="208.65364" style="fill: #ff7f0e; fill-opacity: 0.7; stroke: #ff7f0e; stroke-opacity: 0.7"/>
     <use xlink:href="#m3d0fbaba1c" x="588.191235" y="203.342524" style="fill: #ff7f0e; fill-opacity: 0.7; stroke: #ff7f0e; stroke-opacity: 0.7"/>
     <use xlink:href="#m3d0fbaba1c" x="614.868526" y="207.01945" style="fill: #ff7f0e; fill-opacity: 0.7; stroke: #ff7f0e; stroke-opacity: 0.7"/>
     <use xlink:href="#m3d0fbaba1c" x="641.545817" y="213.964756" style="fill: #ff7f0e; fill-opacity: 0.7; stroke: #ff7f0e; stroke-opacity: 0.7"/>
     <use xlink:href="#m3d0fbaba1c" x="668.223108" y="205.793808" style="fill: #ff7f0e; fill-opacity: 0.7; stroke: #ff7f0e; stroke-opacity: 0.7"/>
     <use xlink:href="#m3d0fbaba1c" x="694.900398" y="205.385261" style="fill: #ff7f0e; fill-opacity: 0.7; stroke: #ff7f0e; stroke-opacity: 0.7"/>
     <use xlink:href="#m3d0fbaba1c" x="721.577689" y="214.781851" style="fill: #ff7f0e; fill-opacity: 0.7; stroke: #ff7f0e; stroke-opacity: 0.7"/>
     <use xlink:href="#m3d0fbaba1c" x="748.25498" y="211.513472" style="fill: #ff7f0e; fill-opacity: 0.7; stroke: #ff7f0e; stroke-opacity: 0.7"/>
    </g>
   </g>
   <g id="patch_3">
    <path d="M 108 256.32 
L 108 34.56 
" style="fill: none; stroke: #000000; stroke-width: 0.8; stroke-linejoin: miter; stroke-linecap: square"/>
   </g>
   <g id="patch_4">
    <path d="M 777.6 256.32 
L 777.6 34.56 
" style="fill: none; stroke: #000000; stroke-width: 0.8; stroke-linejoin: miter; stroke-linecap: square"/>
   </g>
   <g id="patch_5">
    <path d="M 108 256.32 
L 777.6 256.32 
" style="fill: none; stroke: #000000; stroke-width: 0.8; stroke-linejoin: miter; stroke-linecap: square"/>
   </g>
   <g id="patch_6">
    <path d="M 108 34.56 
L 777.6 34.56 
" style="fill: none; stroke: #000000; stroke-width: 0.8; stroke-linejoin: miter; stroke-linecap: square"/>
   </g>
   <g id="text_34">
    <!-- Networks at first and last split iteration -->
    <g transform="translate(341.766563 15.62325) scale(0.12 -0.12)">
     <defs>
      <path id="Helvetica-4e" d="M 488 4591 
L 1222 4591 
L 3541 872 
L 3541 4591 
L 4131 4591 
L 4131 0 
L 3434 0 
L 1081 3716 
L 1081 0 
L 488 0 
L 488 4591 
z
M 2269 4591 
L 2269 4591 
z
" transform="scale(0.015625)"/>
      <path id="Helvetica-74" d="M 525 4281 
L 1094 4281 
L 1094 3347 
L 1628 3347 
L 1628 2888 
L 1094 2888 
L 1094 703 
Q 1094 528 1213 469 
Q 1278 434 1431 434 
Q 1472 434 1519 436 
Q 1566 438 1628 444 
L 1628 0 
Q 1531 -28 1426 -40 
Q 1322 -53 1200 -53 
Q 806 -53 665 148 
Q 525 350 525 672 
L 525 2888 
L 72 2888 
L 72 3347 
L 525 3347 
L 525 4281 
z
" transform="scale(0.015625)"/>
      <path id="Helvetica-77" d="M 672 3347 
L 1316 709 
L 1969 3347 
L 2600 3347 
L 3256 725 
L 3941 3347 
L 4503 3347 
L 3531 0 
L 2947 0 
L 2266 2591 
L 1606 0 
L 1022 0 
L 56 3347 
L 672 3347 
z
" transform="scale(0.015625)"/>
      <path id="Helvetica-6b" d="M 400 4591 
L 941 4591 
L 941 1925 
L 2384 3347 
L 3103 3347 
L 1822 2094 
L 3175 0 
L 2456 0 
L 1413 1688 
L 941 1256 
L 941 0 
L 400 0 
L 400 4591 
z
" transform="scale(0.015625)"/>
      <path id="Helvetica-61" d="M 844 891 
Q 844 647 1022 506 
Q 1200 366 1444 366 
Q 1741 366 2019 503 
Q 2488 731 2488 1250 
L 2488 1703 
Q 2384 1638 2221 1594 
Q 2059 1550 1903 1531 
L 1563 1488 
Q 1256 1447 1103 1359 
Q 844 1213 844 891 
z
M 2206 2028 
Q 2400 2053 2466 2191 
Q 2503 2266 2503 2406 
Q 2503 2694 2298 2823 
Q 2094 2953 1713 2953 
Q 1272 2953 1088 2716 
Q 984 2584 953 2325 
L 428 2325 
Q 444 2944 830 3186 
Q 1216 3428 1725 3428 
Q 2316 3428 2684 3203 
Q 3050 2978 3050 2503 
L 3050 575 
Q 3050 488 3086 434 
Q 3122 381 3238 381 
Q 3275 381 3322 386 
Q 3369 391 3422 400 
L 3422 -16 
Q 3291 -53 3222 -62 
Q 3153 -72 3034 -72 
Q 2744 -72 2613 134 
Q 2544 244 2516 444 
Q 2344 219 2022 53 
Q 1700 -113 1313 -113 
Q 847 -113 551 170 
Q 256 453 256 878 
Q 256 1344 547 1600 
Q 838 1856 1309 1916 
L 2206 2028 
z
M 1741 3428 
L 1741 3428 
z
" transform="scale(0.015625)"/>
      <path id="Helvetica-6c" d="M 428 4591 
L 991 4591 
L 991 0 
L 428 0 
L 428 4591 
z
" transform="scale(0.015625)"/>
      <path id="Helvetica-70" d="M 1825 378 
Q 2219 378 2480 708 
Q 2741 1038 2741 1694 
Q 2741 2094 2625 2381 
Q 2406 2934 1825 2934 
Q 1241 2934 1025 2350 
Q 909 2038 909 1556 
Q 909 1169 1025 897 
Q 1244 378 1825 378 
z
M 369 3331 
L 916 3331 
L 916 2888 
Q 1084 3116 1284 3241 
Q 1569 3428 1953 3428 
Q 2522 3428 2919 2992 
Q 3316 2556 3316 1747 
Q 3316 653 2744 184 
Q 2381 -113 1900 -113 
Q 1522 -113 1266 53 
Q 1116 147 931 375 
L 931 -1334 
L 369 -1334 
L 369 3331 
z
" transform="scale(0.015625)"/>
     </defs>
     <use xlink:href="#Helvetica-4e"/>
     <use xlink:href="#Helvetica-65" x="72.216797"/>
     <use xlink:href="#Helvetica-74" x="127.832031"/>
     <use xlink:href="#Helvetica-77" x="155.615234"/>
     <use xlink:href="#Helvetica-6f" x="227.832031"/>
     <use xlink:href="#Helvetica-72" x="283.447266"/>
     <use xlink:href="#Helvetica-6b" x="316.748047"/>
     <use xlink:href="#Helvetica-73" x="366.748047"/>
     <use xlink:href="#Helvetica-20" x="416.748047"/>
     <use xlink:href="#Helvetica-61" x="444.53125"/>
     <use xlink:href="#Helvetica-74" x="500.146484"/>
     <use xlink:href="#Helvetica-20" x="527.929688"/>
     <use xlink:href="#Helvetica-66" x="555.712891"/>
     <use xlink:href="#Helvetica-69" x="583.496094"/>
     <use xlink:href="#Helvetica-72" x="605.712891"/>
     <use xlink:href="#Helvetica-73" x="639.013672"/>
     <use xlink:href="#Helvetica-74" x="689.013672"/>
     <use xlink:href="#Helvetica-20" x="716.796875"/>
     <use xlink:href="#Helvetica-61" x="744.580078"/>
     <use xlink:href="#Helvetica-6e" x="800.195312"/>
     <use xlink:href="#Helvetica-64" x="855.810547"/>
     <use xlink:href="#Helvetica-20" x="911.425781"/>
     <use xlink:href="#Helvetica-6c" x="939.208984"/>
     <use xlink:href="#Helvetica-61" x="961.425781"/>
     <use xlink:href="#Helvetica-73" x="1017.041016"/>
     <use xlink:href="#Helvetica-74" x="1067.041016"/>
     <use xlink:href="#Helvetica-20" x="1094.824219"/>
     <use xlink:href="#Helvetica-73" x="1122.607422"/>
     <use xlink:href="#Helvetica-70" x="1172.607422"/>
     <use xlink:href="#Helvetica-6c" x="1228.222656"/>
     <use xlink:href="#Helvetica-69" x="1250.439453"/>
     <use xlink:href="#Helvetica-74" x="1272.65625"/>
     <use xlink:href="#Helvetica-20" x="1300.439453"/>
     <use xlink:href="#Helvetica-69" x="1328.222656"/>
     <use xlink:href="#Helvetica-74" x="1350.439453"/>
     <use xlink:href="#Helvetica-65" x="1378.222656"/>
     <use xlink:href="#Helvetica-72" x="1433.837891"/>
     <use xlink:href="#Helvetica-61" x="1467.138672"/>
     <use xlink:href="#Helvetica-74" x="1522.753906"/>
     <use xlink:href="#Helvetica-69" x="1550.537109"/>
     <use xlink:href="#Helvetica-6f" x="1572.753906"/>
     <use xlink:href="#Helvetica-6e" x="1628.369141"/>
    </g>
    <!-- (mean, std of 4 runs) -->
    <g transform="translate(387.448125 28.56) scale(0.12 -0.12)">
     <defs>
      <path id="Helvetica-28" d="M 1894 4666 
Q 1403 3713 1256 3263 
Q 1034 2578 1034 1681 
Q 1034 775 1288 25 
Q 1444 -438 1903 -1306 
L 1525 -1306 
Q 1069 -594 959 -397 
Q 850 -200 722 138 
Q 547 600 478 1125 
Q 444 1397 444 1644 
Q 444 2569 734 3291 
Q 919 3750 1503 4666 
L 1894 4666 
z
" transform="scale(0.015625)"/>
      <path id="Helvetica-2c" d="M 531 -653 
Q 747 -616 834 -350 
Q 881 -209 881 -78 
Q 881 -56 879 -39 
Q 878 -22 872 0 
L 531 0 
L 531 681 
L 1200 681 
L 1200 50 
Q 1200 -322 1050 -603 
Q 900 -884 531 -950 
L 531 -653 
z
" transform="scale(0.015625)"/>
      <path id="Helvetica-29" d="M 222 -1306 
Q 719 -338 863 106 
Q 1081 778 1081 1681 
Q 1081 2584 828 3334 
Q 672 3797 213 4666 
L 591 4666 
Q 1072 3897 1173 3717 
Q 1275 3538 1394 3222 
Q 1544 2831 1608 2450 
Q 1672 2069 1672 1716 
Q 1672 791 1378 66 
Q 1194 -400 613 -1306 
L 222 -1306 
z
" transform="scale(0.015625)"/>
     </defs>
     <use xlink:href="#Helvetica-28"/>
     <use xlink:href="#Helvetica-6d" x="33.300781"/>
     <use xlink:href="#Helvetica-65" x="116.601562"/>
     <use xlink:href="#Helvetica-61" x="172.216797"/>
     <use xlink:href="#Helvetica-6e" x="227.832031"/>
     <use xlink:href="#Helvetica-2c" x="283.447266"/>
     <use xlink:href="#Helvetica-20" x="311.230469"/>
     <use xlink:href="#Helvetica-73" x="339.013672"/>
     <use xlink:href="#Helvetica-74" x="389.013672"/>
     <use xlink:href="#Helvetica-64" x="416.796875"/>
     <use xlink:href="#Helvetica-20" x="472.412109"/>
     <use xlink:href="#Helvetica-6f" x="500.195312"/>
     <use xlink:href="#Helvetica-66" x="555.810547"/>
     <use xlink:href="#Helvetica-20" x="583.59375"/>
     <use xlink:href="#Helvetica-34" x="611.376953"/>
     <use xlink:href="#Helvetica-20" x="666.992188"/>
     <use xlink:href="#Helvetica-72" x="694.775391"/>
     <use xlink:href="#Helvetica-75" x="728.076172"/>
     <use xlink:href="#Helvetica-6e" x="783.691406"/>
     <use xlink:href="#Helvetica-73" x="839.306641"/>
     <use xlink:href="#Helvetica-29" x="889.306641"/>
    </g>
   </g>
   <g id="legend_1">
    <g id="patch_7">
     <path d="M 633.58125 71.56625 
L 770.6 71.56625 
Q 772.6 71.56625 772.6 69.56625 
L 772.6 41.56 
Q 772.6 39.56 770.6 39.56 
L 633.58125 39.56 
Q 631.58125 39.56 631.58125 41.56 
L 631.58125 69.56625 
Q 631.58125 71.56625 633.58125 71.56625 
z
" style="fill: #ffffff; opacity: 0.8; stroke: #cccccc; stroke-linejoin: miter"/>
    </g>
    <g id="LineCollection_3">
     <path d="M 645.58125 52.350625 
L 645.58125 42.350625 
" style="fill: none; stroke: #1f77b4; stroke-opacity: 0.7; stroke-width: 1.5"/>
    </g>
    <g id="line2d_35">
     <path d="M 635.58125 47.350625 
L 655.58125 47.350625 
" style="fill: none; stroke: #1f77b4; stroke-opacity: 0.7; stroke-width: 1.5; stroke-linecap: square"/>
    </g>
    <g id="line2d_36">
     <g>
      <use xlink:href="#mbd6a0eb3e7" x="645.58125" y="47.350625" style="fill: #1f77b4; fill-opacity: 0.7; stroke: #1f77b4; stroke-opacity: 0.7"/>
     </g>
    </g>
    <g id="text_35">
     <!-- active weights (first iter) -->
     <g transform="translate(663.58125 50.850625) scale(0.1 -0.1)">
      <defs>
       <path id="Helvetica-63" d="M 1703 3444 
Q 2269 3444 2623 3169 
Q 2978 2894 3050 2222 
L 2503 2222 
Q 2453 2531 2275 2736 
Q 2097 2941 1703 2941 
Q 1166 2941 934 2416 
Q 784 2075 784 1575 
Q 784 1072 996 728 
Q 1209 384 1666 384 
Q 2016 384 2220 598 
Q 2425 813 2503 1184 
L 3050 1184 
Q 2956 519 2581 211 
Q 2206 -97 1622 -97 
Q 966 -97 575 383 
Q 184 863 184 1581 
Q 184 2463 612 2953 
Q 1041 3444 1703 3444 
z
M 1616 3428 
L 1616 3428 
z
" transform="scale(0.015625)"/>
       <path id="Helvetica-76" d="M 688 3347 
L 1581 622 
L 2516 3347 
L 3131 3347 
L 1869 0 
L 1269 0 
L 34 3347 
L 688 3347 
z
" transform="scale(0.015625)"/>
       <path id="Helvetica-67" d="M 1594 3406 
Q 1988 3406 2281 3213 
Q 2441 3103 2606 2894 
L 2606 3316 
L 3125 3316 
L 3125 272 
Q 3125 -366 2938 -734 
Q 2588 -1416 1616 -1416 
Q 1075 -1416 706 -1173 
Q 338 -931 294 -416 
L 866 -416 
Q 906 -641 1028 -763 
Q 1219 -950 1628 -950 
Q 2275 -950 2475 -494 
Q 2594 -225 2584 466 
Q 2416 209 2178 84 
Q 1941 -41 1550 -41 
Q 1006 -41 598 345 
Q 191 731 191 1622 
Q 191 2463 602 2934 
Q 1013 3406 1594 3406 
z
M 2606 1688 
Q 2606 2309 2350 2609 
Q 2094 2909 1697 2909 
Q 1103 2909 884 2353 
Q 769 2056 769 1575 
Q 769 1009 998 714 
Q 1228 419 1616 419 
Q 2222 419 2469 966 
Q 2606 1275 2606 1688 
z
M 1659 3428 
L 1659 3428 
z
" transform="scale(0.015625)"/>
      </defs>
      <use xlink:href="#Helvetica-61"/>
      <use xlink:href="#Helvetica-63" x="55.615234"/>
      <use xlink:href="#Helvetica-74" x="105.615234"/>
      <use xlink:href="#Helvetica-69" x="133.398438"/>
      <use xlink:href="#Helvetica-76" x="155.615234"/>
      <use xlink:href="#Helvetica-65" x="205.615234"/>
      <use xlink:href="#Helvetica-20" x="261.230469"/>
      <use xlink:href="#Helvetica-77" x="289.013672"/>
      <use xlink:href="#Helvetica-65" x="361.230469"/>
      <use xlink:href="#Helvetica-69" x="416.845703"/>
      <use xlink:href="#Helvetica-67" x="439.0625"/>
      <use xlink:href="#Helvetica-68" x="494.677734"/>
      <use xlink:href="#Helvetica-74" x="550.292969"/>
      <use xlink:href="#Helvetica-73" x="578.076172"/>
      <use xlink:href="#Helvetica-20" x="628.076172"/>
      <use xlink:href="#Helvetica-28" x="655.859375"/>
      <use xlink:href="#Helvetica-66" x="689.160156"/>
      <use xlink:href="#Helvetica-69" x="716.943359"/>
      <use xlink:href="#Helvetica-72" x="739.160156"/>
      <use xlink:href="#Helvetica-73" x="772.460938"/>
      <use xlink:href="#Helvetica-74" x="822.460938"/>
      <use xlink:href="#Helvetica-20" x="850.244141"/>
      <use xlink:href="#Helvetica-69" x="878.027344"/>
      <use xlink:href="#Helvetica-74" x="900.244141"/>
      <use xlink:href="#Helvetica-65" x="928.027344"/>
      <use xlink:href="#Helvetica-72" x="983.642578"/>
      <use xlink:href="#Helvetica-29" x="1016.943359"/>
     </g>
    </g>
    <g id="LineCollection_4">
     <path d="M 645.58125 66.85375 
L 645.58125 56.85375 
" style="fill: none; stroke: #ff7f0e; stroke-opacity: 0.7; stroke-width: 1.5"/>
    </g>
    <g id="line2d_37">
     <path d="M 635.58125 61.85375 
L 655.58125 61.85375 
" style="fill: none; stroke: #ff7f0e; stroke-opacity: 0.7; stroke-width: 1.5; stroke-linecap: square"/>
    </g>
    <g id="line2d_38">
     <g>
      <use xlink:href="#m3d0fbaba1c" x="645.58125" y="61.85375" style="fill: #ff7f0e; fill-opacity: 0.7; stroke: #ff7f0e; stroke-opacity: 0.7"/>
     </g>
    </g>
    <g id="text_36">
     <!-- active weights (last iter) -->
     <g transform="translate(663.58125 65.35375) scale(0.1 -0.1)">
      <use xlink:href="#Helvetica-61"/>
      <use xlink:href="#Helvetica-63" x="55.615234"/>
      <use xlink:href="#Helvetica-74" x="105.615234"/>
      <use xlink:href="#Helvetica-69" x="133.398438"/>
      <use xlink:href="#Helvetica-76" x="155.615234"/>
      <use xlink:href="#Helvetica-65" x="205.615234"/>
      <use xlink:href="#Helvetica-20" x="261.230469"/>
      <use xlink:href="#Helvetica-77" x="289.013672"/>
      <use xlink:href="#Helvetica-65" x="361.230469"/>
      <use xlink:href="#Helvetica-69" x="416.845703"/>
      <use xlink:href="#Helvetica-67" x="439.0625"/>
      <use xlink:href="#Helvetica-68" x="494.677734"/>
      <use xlink:href="#Helvetica-74" x="550.292969"/>
      <use xlink:href="#Helvetica-73" x="578.076172"/>
      <use xlink:href="#Helvetica-20" x="628.076172"/>
      <use xlink:href="#Helvetica-28" x="655.859375"/>
      <use xlink:href="#Helvetica-6c" x="689.160156"/>
      <use xlink:href="#Helvetica-61" x="711.376953"/>
      <use xlink:href="#Helvetica-73" x="766.992188"/>
      <use xlink:href="#Helvetica-74" x="816.992188"/>
      <use xlink:href="#Helvetica-20" x="844.775391"/>
      <use xlink:href="#Helvetica-69" x="872.558594"/>
      <use xlink:href="#Helvetica-74" x="894.775391"/>
      <use xlink:href="#Helvetica-65" x="922.558594"/>
      <use xlink:href="#Helvetica-72" x="978.173828"/>
      <use xlink:href="#Helvetica-29" x="1011.474609"/>
     </g>
    </g>
   </g>
  </g>
 </g>
 <defs>
  <clipPath id="pfe31269e76">
   <rect x="108" y="34.56" width="669.6" height="221.76"/>
  </clipPath>
 </defs>
</svg>
